<?xml version="1.0"?>
<svg width="96" height="96"
    xmlns="http://www.w3.org/2000/svg"
    xmlns:svg="http://www.w3.org/2000/svg" version="1.1" xml:space="preserve">
    <g class="layer" display="inline">
        <title>Layer 1</title>
        <rect fill="#439bf2" height="54.76" id="svg_7" rx="14" ry="14" stroke="#439bf2" stroke-dasharray="null" stroke-linecap="null" stroke-linejoin="null" transform="matrix(1, 0, 0, 1, 0, 0) matrix(1, 0, 0, 1, 2.02874, 3.63483)" width="77.02" x="5.99" y="7.34"/>
        <path d="m40.77,28.17l0.23,20.51l13.27,-10.31" fill="#ff5454" id="svg_14" stroke="#ff5454" stroke-dasharray="null" stroke-linecap="null" stroke-linejoin="null" stroke-width="null" transform="matrix(1, 0, 0, 1, 0, 0)"/>
        <path d="m72.05,10.09l-50.35,0c-8.06,0 -14.37,6.26 -14.37,14.25l0,28.62c0,8 6.31,14.27 14.37,14.27l6.2,0a2.29,2.29 0 0 0 0,-4.57l-6.2,0c-5.49,0 -9.8,-4.26 -9.8,-9.7l0,-28.62c0,-5.43 4.31,-9.68 9.8,-9.68l50.35,0c5.8,0 10.71,4.44 10.71,9.68l0,6.32a2.29,2.29 0 0 0 4.57,0l0,-6.32c0,-7.72 -7,-14.25 -15.28,-14.25z" data-original="#000000" fill="#000000" id="svg_2"/>
        <path d="m43.23,50.74l11.92,-9.3c1.3,-0.96 2.07,-2.47 2.07,-4.04c0,-1.42 -0.65,-2.72 -1.76,-3.54l-12.27,-9.35c-0.83,-0.61 -1.77,-0.94 -2.71,-0.94c-2.4,0 -4.28,2.09 -4.28,4.74l0,18.66c0,2.66 1.88,4.74 4.28,4.74c0.94,0 1.88,-0.33 2.75,-0.97zm-2.45,-22.32l11.87,8.98c0,0.05 -0.05,0.25 -0.27,0.41l-11.6,9.03l0,-18.42zm36.67,38.04c4.6,0 8.35,-3.75 8.35,-8.35s-3.75,-8.35 -8.35,-8.35s-8.35,3.75 -8.35,8.35c0,0.44 0.07,0.87 0.13,1.29l-12.12,7.32l-13.72,-8.27a2.29,2.29 0 1 0 -2.36,3.91l11.65,7.03l-11.65,7.02a2.29,2.29 0 1 0 2.36,3.92l13.72,-8.27l12.05,7.26c-0.01,0.19 -0.06,0.37 -0.06,0.55c0,4.61 3.75,8.35 8.35,8.35s8.35,-3.74 8.35,-8.35c0,-4.6 -3.75,-8.34 -8.35,-8.34c-2.75,0 -5.18,1.35 -6.7,3.41l-9.22,-5.55l9.66,-5.82c1.52,1.75 3.75,2.89 6.26,2.89zm0,-12.12c2.08,0 3.77,1.69 3.77,3.77s-1.69,3.78 -3.77,3.78c-2.08,0 -3.78,-1.7 -3.78,-3.78s1.7,-3.77 3.78,-3.77zm0,21.76c2.08,0 3.77,1.69 3.77,3.77s-1.69,3.78 -3.77,3.78c-2.08,0 -3.78,-1.69 -3.78,-3.78s1.7,-3.77 3.78,-3.77z" data-original="#000000" fill="#000000" id="svg_3"/>
    </g>

</svg>